<svg height="512" viewBox="0 0 512 512" width="512" xmlns="http://www.w3.org/2000/svg"><g id="Filledoutline"><circle cx="360" cy="152" fill="#f8bc1e" r="128"/><path d="m88 224h336v264h-336z" fill="#e3e4e2"/><path d="m88 224h336v40h-336z" fill="#c9c9c8"/><path d="m80 144-32 104h416l-32-104z" fill="#0093b9"/><path d="m176 488 16-32h128l16 32z" fill="#c9c9c8"/><path d="m216 456v-112a40 40 0 0 1 40-40 40 40 0 0 1 40 40v112z" fill="#0093b9"/><path d="m128 312h48v80h-48z" fill="#0093b9"/><g fill="#85bb40"><path d="m400 208h-288l32-128h224z"/><path d="m104 488a24 24 0 1 0 -10.926-45.366 32 32 0 1 0 -29.074 45.366z"/><path d="m408 488a24 24 0 1 1 10.926-45.366 32 32 0 1 1 29.074 45.366z"/></g><path d="m336 312h48v80h-48z" fill="#0093b9"/><path d="m48 256h32v152h16v-152h320v152h16v-152h32a8 8 0 0 0 7.646-10.353l-32-104a8 8 0 0 0 -7.646-5.647h-24v16h18.092l27.076 88h-394.336l27.076-88h18.092v-16h-24a8 8 0 0 0 -7.646 5.647l-32 104a8 8 0 0 0 7.646 10.353z"/><path d="m240 368h16v16h-16z"/><path d="m120 312v80a8 8 0 0 0 8 8h48a8 8 0 0 0 8-8v-80a8 8 0 0 0 -8-8h-48a8 8 0 0 0 -8 8zm16 72v-16h32v16zm32-64v32h-32v-32z"/><path d="m328 312v80a8 8 0 0 0 8 8h48a8 8 0 0 0 8-8v-80a8 8 0 0 0 -8-8h-48a8 8 0 0 0 -8 8zm16 72v-16h32v16zm32-64v32h-32v-32z"/><path d="m144 272h16v16h-16z"/><path d="m352 272h16v16h-16z"/><path d="m112 216h288a8 8 0 0 0 7.761-9.94l-32-128a8 8 0 0 0 -7.761-6.06h-224a8 8 0 0 0 -7.761 6.06l-32 128a8 8 0 0 0 7.761 9.94zm180.516-64h36.421l6 48h-39.421zm-13.032 48h-46.968l3-48h40.968zm12.032-64-3-48h32.421l6 48zm-16.032 0h-38.968l3-48h32.968zm-55 0h-35.422l6-48h32.422zm-1 16-3 48h-39.422l6-48zm131.578 48-6-48h32.692l12 48zm22.692-64h-30.692l-6-48h24.692zm-223.508-48h24.691l-6 48h-30.691zm-16 64h32.691l-6 48h-38.691z"/><path d="m360 32a120.075 120.075 0 0 1 111.28 165l14.83 6a135.256 135.256 0 0 0 9.89-51c0-74.99-61.01-136-136-136a135.438 135.438 0 0 0 -93.5 37.24l11 11.617a119.5 119.5 0 0 1 82.5-32.857z"/><path d="m448 416a40.144 40.144 0 0 0 -32.622 16.866 31.977 31.977 0 0 0 -35.073 47.134h-39.361l-13.789-27.578a8 8 0 0 0 -7.155-4.422h-16v-104a48 48 0 0 0 -96 0v104h-16a8 8 0 0 0 -7.155 4.422l-13.789 27.578h-39.356a31.982 31.982 0 0 0 -35.073-47.134 40 40 0 1 0 -32.627 63.134h384a40 40 0 0 0 0-80zm-224-72a32 32 0 0 1 64 0v104h-64zm-27.056 120h118.112l8 16h-134.112zm-92.944 16h-40a24 24 0 1 1 21.808-34.02 8 8 0 0 0 10.915 3.773 15.81 15.81 0 0 1 7.277-1.753 16 16 0 0 1 0 32zm344 0h-40a16 16 0 0 1 0-32 15.81 15.81 0 0 1 7.277 1.753 8 8 0 0 0 10.915-3.773 24 24 0 1 1 21.808 34.02z"/></g></svg>